<svg width="25" height="18" viewBox="0 0 25 18" fill="none" xmlns="http://www.w3.org/2000/svg">
<path d="M24.1153 8.60593H22.0396C22.9025 6.64686 22.8092 5.06094 22.4827 3.98811C21.923 2.07569 20.0339 0 17.2352 0C16.4889 0 15.7426 0.139934 14.9729 0.419801C13.6435 0.90957 12.7573 1.44598 12.3608 1.72585C11.9643 1.44598 11.1014 0.90957 9.74872 0.419801C8.97909 0.139934 8.20945 0 7.48646 0C4.68778 0 2.79868 2.07569 2.23894 3.98811C1.91243 5.13091 1.79582 6.85676 2.89197 9.02573H0.373157C0.163256 9.02573 0 9.18899 0 9.39889C0 9.60879 0.163256 9.77205 0.373157 9.77205H3.33509C3.4517 9.98195 3.59164 10.1918 3.75489 10.4017C6.18041 13.9001 11.4513 17.7016 12.4075 17.9349V17.9582C12.4075 17.9582 12.4308 17.9582 12.4541 17.9349C12.4774 17.9349 12.5008 17.9349 12.5241 17.9349V17.9115C13.3404 17.5151 18.4013 14.2499 21.06 10.3784C21.3166 10.0286 21.5265 9.67876 21.7131 9.32892H24.1619C24.3718 9.32892 24.5351 9.16567 24.5351 8.95576C24.5351 8.74586 24.3252 8.60593 24.1153 8.60593ZM20.3837 9.98195C17.9115 13.5969 13.3637 16.5122 12.3841 17.1419C11.3813 16.5122 6.85676 13.5736 4.36127 9.98195C4.31463 9.91198 4.26798 9.84201 4.22134 9.77205H7.64972C7.78965 9.77205 7.92958 9.70208 7.99955 9.56214L9.56215 6.4836L12.011 12.7573C12.0576 12.8972 12.2209 12.9905 12.3608 12.9905C12.3608 12.9905 12.3608 12.9905 12.3841 12.9905C12.5474 12.9905 12.6873 12.8739 12.734 12.7107L14.8796 5.36413L16.0224 9.07238C16.0691 9.21231 16.1857 9.3056 16.3256 9.32892C16.4655 9.35224 16.6055 9.28228 16.6988 9.16567L17.6083 7.83629L18.378 9.14234C18.4479 9.25895 18.5646 9.32892 18.7045 9.32892H20.8035C20.6636 9.56214 20.5236 9.77205 20.3837 9.98195ZM21.2233 8.60593H18.9377L17.9815 6.97337C17.9115 6.85676 17.7949 6.78679 17.655 6.78679C17.5151 6.78679 17.3984 6.83344 17.3285 6.95005L16.5355 8.11616L15.2528 3.94147C15.2061 3.77821 15.0429 3.68492 14.8796 3.6616C14.7164 3.6616 14.5531 3.77821 14.5065 3.94147L12.3375 11.4279L9.98195 5.41077C9.9353 5.27084 9.79537 5.17755 9.65543 5.17755C9.49218 5.17755 9.37557 5.24752 9.3056 5.38745L7.46314 9.00241H3.75489C2.822 7.29988 2.56545 5.66732 2.98526 4.19801C3.47502 2.54213 5.08426 0.769636 7.50978 0.769636C8.16281 0.769636 8.83915 0.90957 9.5155 1.14279C11.218 1.77249 12.1276 2.49549 12.1509 2.49549C12.2909 2.6121 12.4774 2.6121 12.6174 2.49549C12.6174 2.49549 13.5269 1.77249 15.2528 1.14279C15.9291 0.886247 16.6055 0.769636 17.2585 0.769636C19.6607 0.769636 21.2933 2.54213 21.783 4.19801C22.1795 5.55071 21.9696 7.04334 21.2233 8.60593Z" fill="#323232" fill-opacity="0.8"/>
</svg>
